<svg width="18" height="19" viewBox="0 0 18 19" fill="none" xmlns="http://www.w3.org/2000/svg">
<path d="M12.75 7.62514H5.55751L6.53251 6.65764C6.67374 6.51641 6.75308 6.32487 6.75308 6.12514C6.75308 5.92541 6.67374 5.73387 6.53251 5.59264C6.39129 5.45141 6.19974 5.37207 6.00001 5.37207C5.80029 5.37207 5.60874 5.45141 5.46751 5.59264L3.21751 7.84264C3.14923 7.91397 3.09571 7.99808 3.06001 8.09014C2.985 8.27274 2.985 8.47754 3.06001 8.66014C3.09571 8.7522 3.14923 8.83631 3.21751 8.90764L5.46751 11.1576C5.53724 11.2279 5.62019 11.2837 5.71158 11.3218C5.80298 11.3599 5.901 11.3795 6.00001 11.3795C6.09902 11.3795 6.19705 11.3599 6.28845 11.3218C6.37984 11.2837 6.46279 11.2279 6.53251 11.1576C6.60281 11.0879 6.65861 11.005 6.69668 10.9136C6.73476 10.8222 6.75436 10.7241 6.75436 10.6251C6.75436 10.5261 6.73476 10.4281 6.69668 10.3367C6.65861 10.2453 6.60281 10.1624 6.53251 10.0926L5.55751 9.12514H12.75C12.9489 9.12514 13.1397 9.20416 13.2803 9.34481C13.421 9.48546 13.5 9.67623 13.5 9.87514V12.8751C13.5 13.0741 13.579 13.2648 13.7197 13.4055C13.8603 13.5461 14.0511 13.6251 14.25 13.6251C14.4489 13.6251 14.6397 13.5461 14.7803 13.4055C14.921 13.2648 15 13.0741 15 12.8751V9.87514C15 9.2784 14.763 8.70611 14.341 8.28415C13.919 7.86219 13.3468 7.62514 12.75 7.62514Z" fill="#BEBEBE"/>
</svg>
