<svg width="24" height="24" viewBox="0 0 24 24" fill="none" xmlns="http://www.w3.org/2000/svg">
<path d="M6.40936 5.49019C6.15552 5.23634 5.74397 5.23634 5.49012 5.49019C5.23628 5.74403 5.23628 6.15558 5.49012 6.40942L11.0807 12L5.59059 17.4902C5.33675 17.744 5.33675 18.1556 5.59059 18.4094C5.84443 18.6633 6.25598 18.6633 6.50983 18.4094L12 12.9193L17.4901 18.4094C17.744 18.6633 18.1555 18.6633 18.4094 18.4094C18.6632 18.1556 18.6632 17.744 18.4094 17.4902L12.9192 12L18.5098 6.40942C18.7637 6.15558 18.7637 5.74403 18.5098 5.49019C18.256 5.23634 17.8444 5.23634 17.5906 5.49019L12 11.0808L6.40936 5.49019Z" fill="#393939"/>
</svg>
