<svg width="18" height="18" viewBox="0 0 18 18" fill="none" xmlns="http://www.w3.org/2000/svg">
<path d="M9 6.75C8.85166 6.75 8.70666 6.79399 8.58332 6.8764C8.45999 6.95881 8.36386 7.07594 8.30709 7.21299C8.25032 7.35003 8.23547 7.50083 8.26441 7.64632C8.29335 7.7918 8.36478 7.92544 8.46967 8.03033C8.57456 8.13522 8.7082 8.20665 8.85368 8.23559C8.99917 8.26453 9.14997 8.24968 9.28701 8.19291C9.42406 8.13614 9.54119 8.04002 9.6236 7.91668C9.70601 7.79334 9.75 7.64834 9.75 7.5C9.75 7.30109 9.67098 7.11032 9.53033 6.96967C9.38968 6.82902 9.19891 6.75 9 6.75ZM14.25 1.5H3.75C3.15326 1.5 2.58097 1.73705 2.15901 2.15901C1.73705 2.58097 1.5 3.15326 1.5 3.75V11.25C1.5 11.8467 1.73705 12.419 2.15901 12.841C2.58097 13.2629 3.15326 13.5 3.75 13.5H12.4425L15.2175 16.2825C15.2876 16.352 15.3707 16.407 15.4621 16.4443C15.5534 16.4817 15.6513 16.5006 15.75 16.5C15.8484 16.5025 15.946 16.482 16.035 16.44C16.172 16.3837 16.2892 16.2882 16.372 16.1654C16.4547 16.0426 16.4993 15.8981 16.5 15.75V3.75C16.5 3.15326 16.2629 2.58097 15.841 2.15901C15.419 1.73705 14.8467 1.5 14.25 1.5ZM15 13.9425L13.2825 12.2175C13.2124 12.148 13.1293 12.093 13.0379 12.0557C12.9466 12.0183 12.8487 11.9994 12.75 12H3.75C3.55109 12 3.36032 11.921 3.21967 11.7803C3.07902 11.6397 3 11.4489 3 11.25V3.75C3 3.55109 3.07902 3.36032 3.21967 3.21967C3.36032 3.07902 3.55109 3 3.75 3H14.25C14.4489 3 14.6397 3.07902 14.7803 3.21967C14.921 3.36032 15 3.55109 15 3.75V13.9425ZM6 6.75C5.85166 6.75 5.70666 6.79399 5.58332 6.8764C5.45999 6.95881 5.36386 7.07594 5.30709 7.21299C5.25032 7.35003 5.23547 7.50083 5.26441 7.64632C5.29335 7.7918 5.36478 7.92544 5.46967 8.03033C5.57456 8.13522 5.7082 8.20665 5.85368 8.23559C5.99917 8.26453 6.14997 8.24968 6.28701 8.19291C6.42406 8.13614 6.54119 8.04002 6.6236 7.91668C6.70601 7.79334 6.75 7.64834 6.75 7.5C6.75 7.30109 6.67098 7.11032 6.53033 6.96967C6.38968 6.82902 6.19891 6.75 6 6.75ZM12 6.75C11.8517 6.75 11.7067 6.79399 11.5833 6.8764C11.46 6.95881 11.3639 7.07594 11.3071 7.21299C11.2503 7.35003 11.2355 7.50083 11.2644 7.64632C11.2934 7.7918 11.3648 7.92544 11.4697 8.03033C11.5746 8.13522 11.7082 8.20665 11.8537 8.23559C11.9992 8.26453 12.15 8.24968 12.287 8.19291C12.4241 8.13614 12.5412 8.04002 12.6236 7.91668C12.706 7.79334 12.75 7.64834 12.75 7.5C12.75 7.30109 12.671 7.11032 12.5303 6.96967C12.3897 6.82902 12.1989 6.75 12 6.75Z" fill="#BABABA"/>
</svg>
