<svg width="16" height="17" viewBox="0 0 16 17" fill="none" xmlns="http://www.w3.org/2000/svg">
<path d="M13.4401 3.83328C12.7334 3.12475 11.7966 2.69231 10.799 2.61406C9.80135 2.53581 8.80861 2.81692 8.0001 3.40661C7.15187 2.77571 6.0961 2.48962 5.04538 2.60597C3.99467 2.72232 3.02706 3.23247 2.33742 4.03367C1.64777 4.83488 1.28732 5.86763 1.32864 6.92396C1.36996 7.98029 1.80998 8.98173 2.5601 9.72661L6.7001 13.8733C7.04678 14.2145 7.51369 14.4057 8.0001 14.4057C8.48651 14.4057 8.95342 14.2145 9.3001 13.8733L13.4401 9.72661C14.2185 8.94346 14.6554 7.88413 14.6554 6.77995C14.6554 5.67577 14.2185 4.61644 13.4401 3.83328V3.83328ZM12.5001 8.80661L8.3601 12.9466C8.31299 12.9942 8.25692 13.0319 8.19513 13.0577C8.13334 13.0835 8.06705 13.0968 8.0001 13.0968C7.93315 13.0968 7.86687 13.0835 7.80508 13.0577C7.74328 13.0319 7.68721 12.9942 7.6401 12.9466L3.5001 8.78661C2.97727 8.25218 2.68451 7.53426 2.68451 6.78661C2.68451 6.03897 2.97727 5.32105 3.5001 4.78661C4.03287 4.26061 4.75142 3.96566 5.5001 3.96566C6.24879 3.96566 6.96733 4.26061 7.5001 4.78661C7.56208 4.8491 7.63581 4.8987 7.71705 4.93254C7.79829 4.96639 7.88543 4.98381 7.97344 4.98381C8.06144 4.98381 8.14858 4.96639 8.22982 4.93254C8.31106 4.8987 8.38479 4.8491 8.44677 4.78661C8.97954 4.26061 9.69808 3.96566 10.4468 3.96566C11.1955 3.96566 11.914 4.26061 12.4468 4.78661C12.9768 5.31405 13.2792 6.02807 13.2891 6.77574C13.2991 7.5234 13.0159 8.24524 12.5001 8.78661V8.80661Z" fill="#BABABA"/>
</svg>
