<svg width="18" height="18" viewBox="0 0 18 18" fill="none" xmlns="http://www.w3.org/2000/svg">
<path d="M15.12 3.75C14.3249 2.95291 13.2711 2.46641 12.1487 2.37838C11.0264 2.29035 9.90953 2.6066 8.99996 3.27C8.0457 2.56023 6.85796 2.23839 5.6759 2.36928C4.49385 2.50017 3.40529 3.07409 2.62944 3.97544C1.85359 4.8768 1.44808 6.03864 1.49456 7.22701C1.54105 8.41538 2.03608 9.542 2.87996 10.38L7.53746 15.045C7.92747 15.4288 8.45275 15.644 8.99996 15.644C9.54717 15.644 10.0724 15.4288 10.4625 15.045L15.12 10.38C15.9956 9.49895 16.4872 8.30721 16.4872 7.065C16.4872 5.8228 15.9956 4.63105 15.12 3.75ZM14.0625 9.345L9.40496 14.0025C9.35196 14.056 9.28888 14.0985 9.21937 14.1275C9.14985 14.1565 9.07528 14.1714 8.99996 14.1714C8.92464 14.1714 8.85007 14.1565 8.78056 14.1275C8.71104 14.0985 8.64796 14.056 8.59496 14.0025L3.93746 9.3225C3.34928 8.72126 3.01992 7.9136 3.01992 7.0725C3.01992 6.2314 3.34928 5.42374 3.93746 4.8225C4.53683 4.23074 5.34519 3.89893 6.18746 3.89893C7.02973 3.89893 7.8381 4.23074 8.43746 4.8225C8.50718 4.8928 8.59014 4.94859 8.68153 4.98667C8.77292 5.02475 8.87095 5.04435 8.96996 5.04435C9.06897 5.04435 9.167 5.02475 9.25839 4.98667C9.34979 4.94859 9.43274 4.8928 9.50246 4.8225C10.1018 4.23074 10.9102 3.89893 11.7525 3.89893C12.5947 3.89893 13.4031 4.23074 14.0025 4.8225C14.5987 5.41586 14.9389 6.21914 14.9501 7.06027C14.9613 7.90139 14.6427 8.71345 14.0625 9.3225V9.345Z" fill="#D82816"/>
</svg>
