<svg width="16" height="16" viewBox="0 0 16 16" fill="none" xmlns="http://www.w3.org/2000/svg">
<path d="M6.72501 7.06273C6.81322 7.00351 6.88784 6.92622 6.94392 6.83598C7 6.74574 7.03628 6.64462 7.05033 6.53931C7.06439 6.434 7.05591 6.3269 7.02546 6.22511C6.99501 6.12332 6.94328 6.02917 6.87369 5.94888C6.80411 5.86859 6.71826 5.804 6.62184 5.75939C6.52541 5.71478 6.42061 5.69117 6.31436 5.69011C6.20812 5.68906 6.10287 5.71059 6.00558 5.75328C5.90829 5.79597 5.82118 5.85884 5.75001 5.93773C5.47734 6.1782 5.15047 6.349 4.79737 6.43554C4.44426 6.52207 4.07545 6.52175 3.7225 6.43461C3.36955 6.34747 3.04296 6.1761 2.77071 5.93517C2.49846 5.69424 2.28864 5.39093 2.15922 5.05119C2.02979 4.71146 1.98462 4.34542 2.02757 3.98442C2.07051 3.62341 2.2003 3.27819 2.40581 2.9783C2.61132 2.67841 2.88644 2.43278 3.20762 2.26245C3.5288 2.09211 3.88647 2.00214 4.25001 2.00023C4.56581 2.00087 4.87794 2.06798 5.1661 2.1972C5.45425 2.32642 5.71198 2.51485 5.92251 2.75023H5.00001C4.8011 2.75023 4.61034 2.82925 4.46968 2.9699C4.32903 3.11056 4.25001 3.30132 4.25001 3.50023C4.25001 3.69915 4.32903 3.88991 4.46968 4.03056C4.61034 4.17122 4.8011 4.25023 5.00001 4.25023H7.25001C7.44893 4.25023 7.63969 4.17122 7.78034 4.03056C7.921 3.88991 8.00001 3.69915 8.00001 3.50023V1.25023C8.00001 1.05132 7.921 0.860557 7.78034 0.719904C7.63969 0.579252 7.44893 0.500234 7.25001 0.500234C7.0511 0.500234 6.86034 0.579252 6.71968 0.719904C6.57903 0.860557 6.50001 1.05132 6.50001 1.25023C5.93318 0.824249 5.25719 0.567697 4.55045 0.510338C3.84372 0.45298 3.1352 0.597166 2.50709 0.92617C1.87899 1.25517 1.35703 1.75551 1.00176 2.36915C0.646493 2.98279 0.472481 3.68457 0.499908 4.3931C0.527335 5.10163 0.755077 5.78786 1.15672 6.3722C1.55836 6.95654 2.11743 7.41503 2.76909 7.6945C3.42076 7.97396 4.1383 8.06294 4.83848 7.95112C5.53867 7.8393 6.19281 7.53126 6.72501 7.06273ZM13.25 3.50023H10.25C10.0511 3.50023 9.86034 3.57925 9.71968 3.7199C9.57903 3.86056 9.50001 4.05132 9.50001 4.25023C9.50001 4.44915 9.57903 4.63991 9.71968 4.78056C9.86034 4.92122 10.0511 5.00023 10.25 5.00023H13.25C13.4489 5.00023 13.6397 5.07925 13.7803 5.2199C13.921 5.36056 14 5.55132 14 5.75023V13.0402L12.8225 11.9527C12.6842 11.8232 12.502 11.7509 12.3125 11.7502H5.75001C5.5511 11.7502 5.36034 11.6712 5.21968 11.5306C5.07903 11.3899 5.00001 11.1991 5.00001 11.0002V10.2502C5.00001 10.0513 4.921 9.86056 4.78034 9.7199C4.63969 9.57925 4.44893 9.50023 4.25001 9.50023C4.0511 9.50023 3.86034 9.57925 3.71968 9.7199C3.57903 9.86056 3.50001 10.0513 3.50001 10.2502V11.0002C3.50001 11.597 3.73707 12.1693 4.15902 12.5912C4.58098 13.0132 5.15328 13.2502 5.75001 13.2502H12.02L14.27 15.2977C14.4007 15.4204 14.571 15.4923 14.75 15.5002C14.8529 15.4991 14.9546 15.4788 15.05 15.4402C15.1842 15.3817 15.2983 15.2852 15.3782 15.1625C15.4582 15.0399 15.5005 14.8966 15.5 14.7502V5.75023C15.5 5.1535 15.263 4.5812 14.841 4.15924C14.419 3.73729 13.8468 3.50023 13.25 3.50023Z" fill="#D82816"/>
</svg>
