<svg width="27" height="22" viewBox="0 0 27 22" fill="none" xmlns="http://www.w3.org/2000/svg">
<path d="M6.175 21.58C4.39833 21.58 2.925 21.0167 1.755 19.89C0.585 18.7633 0 17.3333 0 15.6C0 14.56 0.173333 13.4983 0.52 12.415C0.866667 11.2883 1.47333 9.85833 2.34 8.125L6.305 0H12.415L9.685 10.465C11.5483 11.765 12.48 13.4983 12.48 15.665C12.48 17.355 11.8733 18.7633 10.66 19.89C9.44667 21.0167 7.95167 21.58 6.175 21.58ZM20.605 21.58C18.8283 21.58 17.355 21.0167 16.185 19.89C15.015 18.7633 14.43 17.3333 14.43 15.6C14.43 14.56 14.6033 13.4983 14.95 12.415C15.2967 11.2883 15.9033 9.85833 16.77 8.125L20.735 0H26.845L24.115 10.465C25.9783 11.765 26.91 13.4983 26.91 15.665C26.91 17.355 26.3033 18.7633 25.09 19.89C23.8767 21.0167 22.3817 21.58 20.605 21.58Z" fill="#DAE4F5"/>
</svg>
