<svg width="18" height="18" viewBox="0 0 18 18" fill="none" xmlns="http://www.w3.org/2000/svg">
<path d="M4.58999 8.94C4.67976 8.97968 4.77683 9.00017 4.87499 9.00017C4.97314 9.00017 5.07021 8.97968 5.15999 8.94C5.25205 8.9043 5.33616 8.85078 5.40749 8.7825L7.65749 6.5325C7.79871 6.39127 7.87805 6.19973 7.87805 6C7.87805 5.80027 7.79871 5.60873 7.65749 5.4675C7.51626 5.32627 7.32471 5.24693 7.12499 5.24693C6.92526 5.24693 6.73371 5.32627 6.59249 5.4675L5.62499 6.4425V2.25C5.62499 2.05109 5.54597 1.86032 5.40532 1.71967C5.26466 1.57902 5.0739 1.5 4.87499 1.5C4.67607 1.5 4.48531 1.57902 4.34466 1.71967C4.204 1.86032 4.12499 2.05109 4.12499 2.25V6.4425L3.15749 5.4675C3.08756 5.39757 3.00454 5.3421 2.91317 5.30426C2.82181 5.26641 2.72388 5.24693 2.62499 5.24693C2.52609 5.24693 2.42817 5.26641 2.3368 5.30426C2.24543 5.3421 2.16242 5.39757 2.09249 5.4675C2.02256 5.53743 1.96709 5.62045 1.92924 5.71181C1.8914 5.80318 1.87192 5.90111 1.87192 6C1.87192 6.09889 1.8914 6.19682 1.92924 6.28819C1.96709 6.37955 2.02256 6.46257 2.09249 6.5325L4.34249 8.7825C4.41381 8.85078 4.49792 8.9043 4.58999 8.94ZM13.875 4.5H10.125C9.92607 4.5 9.73531 4.57902 9.59466 4.71967C9.454 4.86032 9.37499 5.05109 9.37499 5.25C9.37499 5.44891 9.454 5.63968 9.59466 5.78033C9.73531 5.92098 9.92607 6 10.125 6H13.875C14.0739 6 14.2647 6.07902 14.4053 6.21967C14.546 6.36032 14.625 6.55109 14.625 6.75V14.04L13.4475 12.9525C13.3092 12.823 13.127 12.7507 12.9375 12.75H6.37499C6.17607 12.75 5.98531 12.671 5.84466 12.5303C5.704 12.3897 5.62499 12.1989 5.62499 12V11.25C5.62499 11.0511 5.54597 10.8603 5.40532 10.7197C5.26466 10.579 5.0739 10.5 4.87499 10.5C4.67607 10.5 4.48531 10.579 4.34466 10.7197C4.204 10.8603 4.12499 11.0511 4.12499 11.25V12C4.12499 12.5967 4.36204 13.169 4.784 13.591C5.20595 14.0129 5.77825 14.25 6.37499 14.25H12.645L14.895 16.2975C15.0333 16.427 15.2155 16.4993 15.405 16.5C15.5079 16.4989 15.6096 16.4785 15.705 16.44C15.8391 16.3814 15.9532 16.2849 16.0332 16.1623C16.1132 16.0397 16.1555 15.8964 16.155 15.75V6.75C16.155 6.45198 16.0958 6.15693 15.9809 5.88198C15.8659 5.60702 15.6975 5.35764 15.4854 5.14831C15.2733 4.93898 15.0217 4.77388 14.7452 4.66258C14.4688 4.55129 14.173 4.49603 13.875 4.5Z" fill="#D82816"/>
</svg>
