<svg width="18" height="18" fill="none" xmlns="http://www.w3.org/2000/svg"><path d="M9 14.25a.75.75 0 1 0 0-1.5.75.75 0 0 0 0 1.5Zm3.75 0a.75.75 0 1 0 0-1.5.75.75 0 0 0 0 1.5Zm0-3a.75.75 0 1 0 0-1.5.75.75 0 0 0 0 1.5Zm-3.75 0a.75.75 0 1 0 0-1.5.75.75 0 0 0 0 1.5Zm5.25-9h-.75V1.5a.75.75 0 1 0-1.5 0v.75H6V1.5a.75.75 0 0 0-1.5 0v.75h-.75A2.25 2.25 0 0 0 1.5 4.5V15a2.25 2.25 0 0 0 2.25 2.25h10.5A2.25 2.25 0 0 0 16.5 15V4.5a2.25 2.25 0 0 0-2.25-2.25ZM15 15a.75.75 0 0 1-.75.75H3.75A.75.75 0 0 1 3 15V8.25h12V15Zm0-8.25H3V4.5a.75.75 0 0 1 .75-.75h.75v.75a.75.75 0 0 0 1.5 0v-.75h6v.75a.75.75 0 1 0 1.5 0v-.75h.75a.75.75 0 0 1 .75.75v2.25Zm-9.75 4.5a.75.75 0 1 0 0-1.5.75.75 0 0 0 0 1.5Zm0 3a.75.75 0 1 0 0-1.5.75.75 0 0 0 0 1.5Z" fill="#BABABA"/></svg>