<svg width="18" height="18" fill="none" xmlns="http://www.w3.org/2000/svg"><path d="M9 6.75a.75.75 0 1 0 0 1.5.75.75 0 0 0 0-1.5Zm5.25-5.25H3.75A2.25 2.25 0 0 0 1.5 3.75v7.5a2.25 2.25 0 0 0 2.25 2.25h8.693l2.774 2.782a.75.75 0 0 0 1.155-.117.75.75 0 0 0 .128-.415v-12a2.25 2.25 0 0 0-2.25-2.25ZM15 13.943l-1.717-1.726A.75.75 0 0 0 12.75 12h-9a.75.75 0 0 1-.75-.75v-7.5A.75.75 0 0 1 3.75 3h10.5a.75.75 0 0 1 .75.75v10.193ZM6 6.75a.75.75 0 1 0 0 1.5.75.75 0 0 0 0-1.5Zm6 0a.75.75 0 1 0 0 1.5.75.75 0 0 0 0-1.5Z" fill="#BABABA"/></svg>