<svg width="16" height="16" fill="none" xmlns="http://www.w3.org/2000/svg"><path d="M6.725 7.063a.75.75 0 1 0-.975-1.125A2.25 2.25 0 1 1 4.25 2a2.25 2.25 0 0 1 1.673.75H5a.75.75 0 0 0 0 1.5h2.25A.75.75 0 0 0 8 3.5V1.25a.75.75 0 1 0-1.5 0 3.75 3.75 0 1 0 .225 5.813ZM13.25 3.5h-3a.75.75 0 0 0 0 1.5h3a.75.75 0 0 1 .75.75v7.29l-1.178-1.087a.75.75 0 0 0-.51-.203H5.75A.75.75 0 0 1 5 11v-.75a.75.75 0 0 0-1.5 0V11a2.25 2.25 0 0 0 2.25 2.25h6.27l2.25 2.048a.75.75 0 0 0 .48.202.823.823 0 0 0 .3-.06.748.748 0 0 0 .45-.69v-9a2.25 2.25 0 0 0-2.25-2.25Z" fill="#D82816"/></svg>