<svg width="18" height="18" fill="none" xmlns="http://www.w3.org/2000/svg"><path d="M4.59 8.94a.705.705 0 0 0 .57 0 .75.75 0 0 0 .247-.157l2.25-2.25a.753.753 0 0 0-1.065-1.066l-.967.976V2.25a.75.75 0 0 0-1.5 0v4.192l-.968-.974a.753.753 0 1 0-1.065 1.064l2.25 2.25a.75.75 0 0 0 .248.158Zm9.285-4.44h-3.75a.75.75 0 1 0 0 1.5h3.75a.75.75 0 0 1 .75.75v7.29l-1.178-1.087a.75.75 0 0 0-.51-.203H6.375a.75.75 0 0 1-.75-.75v-.75a.75.75 0 1 0-1.5 0V12a2.25 2.25 0 0 0 2.25 2.25h6.27l2.25 2.047a.75.75 0 0 0 1.138-.135.75.75 0 0 0 .122-.412v-9a2.251 2.251 0 0 0-2.28-2.25Z" fill="#D82816"/></svg>